<?xml version="1.0" encoding="utf-8"?>
<!-- Generator: Adobe Illustrator 25.2.0, SVG Export Plug-In . SVG Version: 6.00 Build 0)  -->
<svg version="1.1" id="Layer_1" xmlns:svg="http://www.w3.org/2000/svg"
	 xmlns="http://www.w3.org/2000/svg" xmlns:xlink="http://www.w3.org/1999/xlink" x="0px" y="0px" viewBox="0 0 24 24"
	 style="enable-background:new 0 0 24 24;" xml:space="preserve">
<style type="text/css">
	.st0{fill-rule:evenodd;clip-rule:evenodd;}
</style>
<path class="st0" d="M21,16.3c-0.3-0.1-0.5-0.3-0.8-0.3l0-7.8c0.3-0.1,0.7-0.2,1-0.4c2-1.1,2.7-3.7,1.5-5.6c-1.1-2-3.7-2.6-5.7-1.5
	c-1.7,1-2.5,3.1-1.9,4.9L7.9,9.7C6.7,8.2,4.5,7.8,2.8,8.9c-2,1.1-2.7,3.7-1.5,5.6c1.1,2,3.7,2.6,5.7,1.5c0.2-0.1,0.5-0.3,0.7-0.5
	l7.2,4.1c-0.1,1.5,0.6,3,2,3.8c2,1.1,4.5,0.4,5.7-1.5C23.7,19.9,23,17.4,21,16.3z M18.1,2.3c1-0.6,2.3-0.2,2.8,0.7
	c0.6,1,0.2,2.2-0.8,2.8c-0.7,0.4-1.7,0.3-2.3-0.1c-0.2-0.2-0.4-0.4-0.5-0.6C16.8,4.2,17.1,2.9,18.1,2.3z M5.9,14.2
	c-1,0.6-2.3,0.2-2.8-0.7c-0.3-0.5-0.3-1-0.2-1.6c0.1-0.5,0.5-1,1-1.3c0.5-0.3,1-0.3,1.5-0.2c0.5,0.1,1,0.5,1.3,1
	c0.3,0.5,0.4,1.2,0.2,1.7C6.6,13.6,6.3,13.9,5.9,14.2z M15.5,17.6l-6.8-3.9C9,13.1,9,12.3,8.9,11.5l7.5-4.4c0.5,0.5,1.1,0.8,1.8,1
	l0,7.7C17.1,16,16.1,16.7,15.5,17.6z M20.7,20.9c-0.6,1-1.8,1.3-2.8,0.8c-1-0.6-1.3-1.8-0.8-2.8c0.6-1,1.8-1.3,2.8-0.8
	C21,18.6,21.3,19.9,20.7,20.9z"/>
</svg>
